<svg width="23" height="25" viewBox="0 0 23 25" fill="none" xmlns="http://www.w3.org/2000/svg">
<path d="M8.6729 3.627L9.66945 3.70999V3.70999L8.6729 3.627ZM8.5546 5.04773L8.9283 5.97528L9.5 5.74495L9.55115 5.13071L8.5546 5.04773ZM6.53807 6.22811L6.11145 7.13254L6.67615 7.39891L7.16339 7.00848L6.53807 6.22811ZM5.23696 5.61438L4.81034 6.51881H4.81034L5.23696 5.61438ZM2.65313 6.42332L1.78694 5.92361H1.78694L2.65313 6.42332ZM1.8176 7.87161L0.951413 7.37189L0.951413 7.37189L1.8176 7.87161ZM2.40949 10.5154L1.839 11.3368H1.839L2.40949 10.5154ZM3.60751 11.3476L4.59736 11.4897L4.68511 10.8785L4.178 10.5263L3.60751 11.3476ZM3.60775 13.6538L4.17824 14.4751L4.68547 14.1228L4.59757 13.5115L3.60775 13.6538ZM2.40911 14.4864L1.83862 13.6651H1.83862L2.40911 14.4864ZM1.81722 17.1302L0.951034 17.6299L0.951034 17.6299L1.81722 17.1302ZM2.65275 18.5785L3.51894 18.0788H3.51894L2.65275 18.5785ZM5.23658 19.3874L4.80996 18.483H4.80996L5.23658 19.3874ZM6.53958 18.7728L7.16472 17.9923L6.67751 17.6021L6.11296 17.8684L6.53958 18.7728ZM8.5546 19.952L9.55115 19.869L9.5 19.2548L8.9283 19.0244L8.5546 19.952ZM8.6729 21.3727L9.66945 21.2897L8.6729 21.3727ZM14.3277 21.3727L15.3243 21.4557L14.3277 21.3727ZM14.4427 19.9922L14.0818 19.0596L13.4981 19.2855L13.4461 19.9092L14.4427 19.9922ZM16.5231 18.8019L16.9497 17.8974L16.3888 17.6328L15.9025 18.0177L16.5231 18.8019ZM17.7645 19.3874L18.1912 18.483V18.483L17.7645 19.3874ZM20.3484 18.5785L21.2146 19.0782L20.3484 18.5785ZM21.1839 17.1302L20.3177 16.6305L21.1839 17.1302ZM20.592 14.4864L21.1625 13.6651L20.592 14.4864ZM19.4823 13.7156L18.4936 13.5655L18.4001 14.1815L18.9118 14.5369L19.4823 13.7156ZM19.4825 11.2858L18.912 10.4645L18.4005 10.8199L18.4938 11.4357L19.4825 11.2858ZM20.5916 10.5154L20.0211 9.69414V9.69414L20.5916 10.5154ZM21.1835 7.87161L22.0497 7.3719V7.37189L21.1835 7.87161ZM20.348 6.42333L19.4818 6.92304V6.92304L20.348 6.42333ZM17.7642 5.61438L17.3375 4.70995L17.3375 4.70995L17.7642 5.61438ZM16.5246 6.19907L15.9038 6.98304L16.3902 7.36816L16.9512 7.1035L16.5246 6.19907ZM14.4427 5.00749L13.4461 5.09048L13.4981 5.71421L14.0818 5.9401L14.4427 5.00749ZM14.3277 3.627L15.3243 3.54402V3.54402L14.3277 3.627ZM9.66945 3.70999C9.71261 3.19167 10.1459 2.79297 10.666 2.79297V0.792969C9.10567 0.792969 7.80583 1.98906 7.67635 3.54402L9.66945 3.70999ZM9.55115 5.13071L9.66945 3.70999L7.67635 3.54402L7.55805 4.96475L9.55115 5.13071ZM7.16339 7.00848C7.69461 6.5828 8.28839 6.23309 8.9283 5.97528L8.1809 4.12018C7.35722 4.45203 6.59427 4.90162 5.91274 5.44775L7.16339 7.00848ZM4.81034 6.51881L6.11145 7.13254L6.96469 5.32368L5.66358 4.70995L4.81034 6.51881ZM3.51932 6.92304C3.77911 6.47273 4.34029 6.29709 4.81034 6.51881L5.66358 4.70995C4.25224 4.04422 2.56672 4.57198 1.78694 5.92361L3.51932 6.92304ZM2.68379 8.37132L3.51932 6.92304L1.78694 5.92361L0.951413 7.37189L2.68379 8.37132ZM2.97997 9.69414C2.55254 9.39724 2.4238 8.82198 2.68379 8.37132L0.951413 7.37189C0.171847 8.72317 0.557771 10.4468 1.839 11.3368L2.97997 9.69414ZM4.178 10.5263L2.97997 9.69414L1.839 11.3368L3.03702 12.1689L4.178 10.5263ZM4.52552 12.4999C4.52552 12.1563 4.55007 11.8191 4.59736 11.4897L2.61766 11.2055C2.55689 11.6287 2.52552 12.0609 2.52552 12.4999H4.52552ZM4.59757 13.5115C4.55014 13.1816 4.52552 12.8439 4.52552 12.4999H2.52552C2.52552 12.9395 2.55699 13.3723 2.61793 13.7961L4.59757 13.5115ZM2.97959 15.3077L4.17824 14.4751L3.03726 12.8325L1.83862 13.6651L2.97959 15.3077ZM2.68341 16.6305C2.42342 16.1798 2.55216 15.6046 2.97959 15.3077L1.83862 13.6651C0.55739 14.555 0.171468 16.2787 0.951034 17.6299L2.68341 16.6305ZM3.51894 18.0788L2.68341 16.6305L0.951034 17.6299L1.78656 19.0782L3.51894 18.0788ZM4.80996 18.483C4.33991 18.7047 3.77873 18.5291 3.51894 18.0788L1.78656 19.0782C2.56634 20.4299 4.25187 20.9576 5.6632 20.2919L4.80996 18.483ZM6.11296 17.8684L4.80996 18.483L5.6632 20.2919L6.9662 19.6773L6.11296 17.8684ZM8.9283 19.0244C8.28892 18.7669 7.69559 18.4175 7.16472 17.9923L5.91444 19.5533C6.59554 20.0989 7.35791 20.548 8.1809 20.8795L8.9283 19.0244ZM9.66945 21.2897L9.55115 19.869L7.55805 20.035L7.67635 21.4557L9.66945 21.2897ZM10.666 22.2068C10.1459 22.2068 9.71261 21.8081 9.66945 21.2897L7.67635 21.4557C7.80583 23.0107 9.10567 24.2068 10.666 24.2068V22.2068ZM12.3346 22.2068H10.666V24.2068H12.3346V22.2068ZM13.3312 21.2897C13.288 21.8081 12.8547 22.2068 12.3346 22.2068V24.2068C13.8949 24.2068 15.1948 23.0107 15.3243 21.4557L13.3312 21.2897ZM13.4461 19.9092L13.3312 21.2897L15.3243 21.4557L15.4392 20.0752L13.4461 19.9092ZM15.9025 18.0177C15.3551 18.451 14.7423 18.804 14.0818 19.0596L14.8036 20.9248C15.6539 20.5958 16.4414 20.1419 17.1437 19.586L15.9025 18.0177ZM18.1912 18.483L16.9497 17.8974L16.0965 19.7063L17.3379 20.2919L18.1912 18.483ZM19.4822 18.0788C19.2224 18.5291 18.6612 18.7047 18.1912 18.483L17.3379 20.2919C18.7493 20.9576 20.4348 20.4299 21.2146 19.0782L19.4822 18.0788ZM20.3177 16.6305L19.4822 18.0788L21.2146 19.0782L22.0501 17.6299L20.3177 16.6305ZM20.0215 15.3077C20.449 15.6046 20.5777 16.1798 20.3177 16.6305L22.0501 17.6299C22.8296 16.2787 22.4437 14.555 21.1625 13.6651L20.0215 15.3077ZM18.9118 14.5369L20.0215 15.3077L21.1625 13.6651L20.0528 12.8942L18.9118 14.5369ZM18.5736 12.4999C18.5736 12.8627 18.5462 13.2186 18.4936 13.5655L20.471 13.8656C20.5386 13.4196 20.5736 12.9635 20.5736 12.4999H18.5736ZM18.4938 11.4357C18.5463 11.7822 18.5736 12.1375 18.5736 12.4999H20.5736C20.5736 12.0369 20.5387 11.5814 20.4712 11.136L18.4938 11.4357ZM20.0211 9.69414L18.912 10.4645L20.053 12.1071L21.1621 11.3368L20.0211 9.69414ZM20.3173 8.37132C20.5773 8.82199 20.4486 9.39724 20.0211 9.69414L21.1621 11.3368C22.4433 10.4468 22.8293 8.72317 22.0497 7.3719L20.3173 8.37132ZM19.4818 6.92304L20.3173 8.37132L22.0497 7.37189L21.2142 5.92361L19.4818 6.92304ZM18.1908 6.51881C18.6608 6.29709 19.222 6.47273 19.4818 6.92304L21.2142 5.92361C20.4344 4.57198 18.7489 4.04423 17.3375 4.70995L18.1908 6.51881ZM16.9512 7.1035L18.1908 6.51881L17.3375 4.70995L16.098 5.29464L16.9512 7.1035ZM14.0818 5.9401C14.7428 6.19592 15.3561 6.54931 15.9038 6.98304L17.1454 5.4151C16.4427 4.85861 15.6546 4.40423 14.8036 4.07489L14.0818 5.9401ZM13.3312 3.70999L13.4461 5.09048L15.4392 4.92451L15.3243 3.54402L13.3312 3.70999ZM12.3346 2.79297C12.8547 2.79297 13.288 3.19167 13.3312 3.70999L15.3243 3.54402C15.1948 1.98906 13.8949 0.792969 12.3346 0.792969V2.79297ZM10.666 2.79297H12.3346V0.792969H10.666V2.79297Z" fill="white" fill-opacity="0.7"/>
<ellipse cx="11.5482" cy="12.5001" rx="3.56625" ry="3.56897" stroke="white" stroke-opacity="0.7" stroke-width="2"/>
</svg>
