<svg width="15" height="15" viewBox="0 0 15 15" fill="none" xmlns="http://www.w3.org/2000/svg">
<path d="M0.241211 7.6543C0.241211 7.87109 0.317383 8.05566 0.469727 8.20801C0.62793 8.36035 0.8125 8.43652 1.02344 8.43652H6.70996V14.123C6.70996 14.334 6.78613 14.5156 6.93848 14.668C7.09082 14.8262 7.27539 14.9053 7.49219 14.9053C7.70898 14.9053 7.89355 14.8262 8.0459 14.668C8.2041 14.5156 8.2832 14.334 8.2832 14.123V8.43652H13.9609C14.1719 8.43652 14.3535 8.36035 14.5059 8.20801C14.6641 8.05566 14.7432 7.87109 14.7432 7.6543C14.7432 7.4375 14.6641 7.25293 14.5059 7.10059C14.3535 6.94238 14.1719 6.86328 13.9609 6.86328H8.2832V1.18555C8.2832 0.974609 8.2041 0.792969 8.0459 0.640625C7.89355 0.482422 7.70898 0.40332 7.49219 0.40332C7.27539 0.40332 7.09082 0.482422 6.93848 0.640625C6.78613 0.792969 6.70996 0.974609 6.70996 1.18555V6.86328H1.02344C0.8125 6.86328 0.62793 6.94238 0.469727 7.10059C0.317383 7.25293 0.241211 7.4375 0.241211 7.6543Z" fill="white"/>
</svg>
